# xmcd
#
# Track frame offsets:
#	150
#	16164
#	31256
#	43620
#	62101
#	78636
#	92006
#	110186
#	124754
#	140166
#	157517
#	181993
#	197455
#	212196
#	226538
#	244668
#	263297
#	279756
#
# Disc length: 3984 seconds
#
# Revision: 1
# Processed by: cddbd v1.5.2PL0 Copyright (c) Steve Scherf et al.
# Submitted via: audiograbber 1.83.01
#
DISCID=e30f8e12
DTITLE=Various Artist - Promo Only - Country Radio 2011-11
DYEAR=2011
DGENRE=Country
TTITLE0=Kip Moore - Somethin' 'Bout A Truck @
TTITLE1=Jason Aldean - Tattoos On This Town
TTITLE2=Chris Young - You
TTITLE3=The Lost Trailers - Underdog
TTITLE4=Luke Bryan - I Don't Want This Night To End @
TTITLE5=Sunny Sweeny - Drink Myself Single @
TTITLE6=Brent Anderson - Amy's Song
TTITLE7=The JaneDear Girls - Merry Go Round
TTITLE8=Kevin Fowler - That Girl @
TTITLE9=Chris Cagle - Got My Country On
TTITLE10=Vince Gill - Threaten Me With Heaven
TTITLE11=Ashley Gearing - Me, My Heart and I
TTITLE12=Josh Thompson - Change
TTITLE13=Blake Wise - Can't Live Without
TTITLE14=Driftwood Fire - Let It All Go
TTITLE15=Brian Milson - The Man I'm Not
TTITLE16=Aaron Russell - Smoke And Mirrors @
TTITLE17=Kenny Chesney ft Grace Potter - You And Tequila (Live Version)
EXTD=
EXTT0=
EXTT1=
EXTT2=
EXTT3=
EXTT4=
EXTT5=
EXTT6=
EXTT7=
EXTT8=
EXTT9=
EXTT10=
EXTT11=
EXTT12=
EXTT13=
EXTT14=
EXTT15=
EXTT16=
EXTT17=
PLAYORDER=
